{
	"asset": {
		"generator": "Tilt Brush 23.2.28f36f08b",
		"version": "1.1",
		"copyright": "Unknown."
	},
	"buffers": {
		"buffer_sketch": {
			"byteLength": 2270268,
			"type": "arraybuffer",
			"uri": "sketch.bin"
		}
	},
	"accessors": {
		"accessor_position_UnlitHull_a8fea537-da7c-4d4b-817f-24f074725d6d_0_i0": {
			"bufferView": "vec3BufferView",
			"byteOffset": 0,
			"byteStride": 12,
			"componentType": 5126,
			"count": 40926,
			"max": [ 0.39061141, 1.18621087, 0.546251953 ],
			"min": [ 0.0940182731, 0.765907466, 0.29044047 ],
			"type": "VEC3"
		},
		"accessor_normal_UnlitHull_a8fea537-da7c-4d4b-817f-24f074725d6d_0_i0": {
			"bufferView": "vec3BufferView",
			"byteOffset": 491112,
			"byteStride": 12,
			"componentType": 5126,
			"count": 40926,
			"type": "VEC3"
		},
		"accessor_color_UnlitHull_a8fea537-da7c-4d4b-817f-24f074725d6d_0_i0": {
			"bufferView": "vec4BufferView",
			"byteOffset": 0,
			"byteStride": 16,
			"componentType": 5126,
			"count": 40926,
			"type": "VEC4"
		},
		"accessor_uv0_UnlitHull_a8fea537-da7c-4d4b-817f-24f074725d6d_0_i0": {
			"bufferView": "vec3BufferView",
			"byteOffset": 982224,
			"byteStride": 12,
			"componentType": 5126,
			"count": 40926,
			"type": "VEC3"
		},
		"accessor_indices_0_UnlitHull_a8fea537-da7c-4d4b-817f-24f074725d6d_0_i0": {
			"bufferView": "ushortBufferView",
			"byteOffset": 0,
			"byteStride": 0,
			"componentType": 5123,
			"count": 40926,
			"max": [ 40925 ],
			"min": [ 0 ],
			"type": "SCALAR"
		},
		"accessor_position_MatteHull_79348357-432d-4746-8e29-0e25c112e3aa_0_i0": {
			"bufferView": "vec3BufferView",
			"byteOffset": 1473336,
			"byteStride": 12,
			"componentType": 5126,
			"count": 1116,
			"max": [ 0.437801331, 0.859998643, 0.601039886 ],
			"min": [ 0.0449591018, 0.715378225, 0.186975658 ],
			"type": "VEC3"
		},
		"accessor_normal_MatteHull_79348357-432d-4746-8e29-0e25c112e3aa_0_i0": {
			"bufferView": "vec3BufferView",
			"byteOffset": 1486728,
			"byteStride": 12,
			"componentType": 5126,
			"count": 1116,
			"type": "VEC3"
		},
		"accessor_color_MatteHull_79348357-432d-4746-8e29-0e25c112e3aa_0_i0": {
			"bufferView": "vec4BufferView",
			"byteOffset": 654816,
			"byteStride": 16,
			"componentType": 5126,
			"count": 1116,
			"type": "VEC4"
		},
		"accessor_uv0_MatteHull_79348357-432d-4746-8e29-0e25c112e3aa_0_i0": {
			"bufferView": "vec3BufferView",
			"byteOffset": 1500120,
			"byteStride": 12,
			"componentType": 5126,
			"count": 1116,
			"type": "VEC3"
		},
		"accessor_indices_0_MatteHull_79348357-432d-4746-8e29-0e25c112e3aa_0_i0": {
			"bufferView": "ushortBufferView",
			"byteOffset": 81852,
			"byteStride": 0,
			"componentType": 5123,
			"count": 1116,
			"max": [ 1115 ],
			"min": [ 0 ],
			"type": "SCALAR"
		}
	},
	"bufferViews": {
		"ushortBufferView": {
			"buffer": "buffer_sketch",
			"byteLength": 84084,
			"byteOffset": 0,
			"target": 34963
		},
		"vec3BufferView": {
			"buffer": "buffer_sketch",
			"byteLength": 1513512,
			"byteOffset": 84084,
			"target": 34962
		},
		"vec4BufferView": {
			"buffer": "buffer_sketch",
			"byteLength": 672672,
			"byteOffset": 1597596,
			"target": 34962
		}
	},
	"meshes": {
		"mesh_UnlitHull_a8fea537-da7c-4d4b-817f-24f074725d6d_0_i0": {
			"name": "mesh_UnlitHull_a8fea537-da7c-4d4b-817f-24f074725d6d_0_i0",
			"primitives": [
				{
					"attributes": {
						"POSITION": "accessor_position_UnlitHull_a8fea537-da7c-4d4b-817f-24f074725d6d_0_i0",
						"NORMAL": "accessor_normal_UnlitHull_a8fea537-da7c-4d4b-817f-24f074725d6d_0_i0",
						"COLOR": "accessor_color_UnlitHull_a8fea537-da7c-4d4b-817f-24f074725d6d_0_i0",
						"TEXCOORD_0": "accessor_uv0_UnlitHull_a8fea537-da7c-4d4b-817f-24f074725d6d_0_i0"
					},
					"indices": "accessor_indices_0_UnlitHull_a8fea537-da7c-4d4b-817f-24f074725d6d_0_i0",
					"material": "material_a8fea537-da7c-4d4b-817f-24f074725d6d",
					"mode": 4
				}
			]
		},
		"mesh_MatteHull_79348357-432d-4746-8e29-0e25c112e3aa_0_i0": {
			"name": "mesh_MatteHull_79348357-432d-4746-8e29-0e25c112e3aa_0_i0",
			"primitives": [
				{
					"attributes": {
						"POSITION": "accessor_position_MatteHull_79348357-432d-4746-8e29-0e25c112e3aa_0_i0",
						"NORMAL": "accessor_normal_MatteHull_79348357-432d-4746-8e29-0e25c112e3aa_0_i0",
						"COLOR": "accessor_color_MatteHull_79348357-432d-4746-8e29-0e25c112e3aa_0_i0",
						"TEXCOORD_0": "accessor_uv0_MatteHull_79348357-432d-4746-8e29-0e25c112e3aa_0_i0"
					},
					"indices": "accessor_indices_0_MatteHull_79348357-432d-4746-8e29-0e25c112e3aa_0_i0",
					"material": "material_79348357-432d-4746-8e29-0e25c112e3aa",
					"mode": 4
				}
			]
		}
	},
	"shaders": {
		"vertex_a8fea537-da7c-4d4b-817f-24f074725d6d": {
			"type": 35633,
			"uri": "https://www.tiltbrush.com/shaders/brushes/UnlitHull-a8fea537-da7c-4d4b-817f-24f074725d6d/UnlitHull-a8fea537-da7c-4d4b-817f-24f074725d6d-v10.0-vertex.glsl"
		},
		"fragment_a8fea537-da7c-4d4b-817f-24f074725d6d": {
			"type": 35632,
			"uri": "https://www.tiltbrush.com/shaders/brushes/UnlitHull-a8fea537-da7c-4d4b-817f-24f074725d6d/UnlitHull-a8fea537-da7c-4d4b-817f-24f074725d6d-v10.0-fragment.glsl"
		},
		"vertex_79348357-432d-4746-8e29-0e25c112e3aa": {
			"type": 35633,
			"uri": "https://www.tiltbrush.com/shaders/brushes/MatteHull-79348357-432d-4746-8e29-0e25c112e3aa/MatteHull-79348357-432d-4746-8e29-0e25c112e3aa-v10.0-vertex.glsl"
		},
		"fragment_79348357-432d-4746-8e29-0e25c112e3aa": {
			"type": 35632,
			"uri": "https://www.tiltbrush.com/shaders/brushes/MatteHull-79348357-432d-4746-8e29-0e25c112e3aa/MatteHull-79348357-432d-4746-8e29-0e25c112e3aa-v10.0-fragment.glsl"
		}
	},
	"programs": {
		"program_a8fea537-da7c-4d4b-817f-24f074725d6d": {
			"attributes": [
				"a_position",
				"a_normal",
				"a_color",
				"a_texcoord0"
			],
			"vertexShader": "vertex_a8fea537-da7c-4d4b-817f-24f074725d6d",
			"fragmentShader": "fragment_a8fea537-da7c-4d4b-817f-24f074725d6d"
		},
		"program_79348357-432d-4746-8e29-0e25c112e3aa": {
			"attributes": [
				"a_position",
				"a_normal",
				"a_color",
				"a_texcoord0"
			],
			"vertexShader": "vertex_79348357-432d-4746-8e29-0e25c112e3aa",
			"fragmentShader": "fragment_79348357-432d-4746-8e29-0e25c112e3aa"
		}
	},
	"techniques": {
		"technique_a8fea537-da7c-4d4b-817f-24f074725d6d": {
			"program": "program_a8fea537-da7c-4d4b-817f-24f074725d6d",
			"parameters": {
				"position": {
					"type": 35665,
					"semantic": "POSITION"
				},
				"normal": {
					"type": 35665,
					"semantic": "NORMAL"
				},
				"color": {
					"type": 35666,
					"semantic": "COLOR"
				},
				"texcoord0": {
					"type": 35665,
					"semantic": "TEXCOORD_0"
				},
				"modelViewMatrix": {
					"type": 35676,
					"semantic": "MODELVIEW"
				},
				"projectionMatrix": {
					"type": 35676,
					"semantic": "PROJECTION"
				},
				"normalMatrix": {
					"type": 35675,
					"semantic": "MODELVIEWINVERSETRANSPOSE"
				},
				"SceneLight_0_matrix": {
					"type": 35676,
					"semantic": "MODELVIEW",
					"node": "node_SceneLight_0_i1"
				},
				"SceneLight_0_color": {
					"type": 35666,
					"node": "node_SceneLight_0_i1"
				},
				"SceneLight_1_matrix": {
					"type": 35676,
					"semantic": "MODELVIEW",
					"node": "node_SceneLight_1_i2"
				},
				"SceneLight_1_color": {
					"type": 35666,
					"node": "node_SceneLight_1_i2"
				},
				"ambient_light_color": {
					"type": 35666
				},
				"Cutoff": {
					"type": 5126
				}
			},
			"attributes": {
				"a_position": "position",
				"a_normal": "normal",
				"a_color": "color",
				"a_texcoord0": "texcoord0"
			},
			"uniforms": {
				"u_modelViewMatrix": "modelViewMatrix",
				"u_projectionMatrix": "projectionMatrix",
				"u_normalMatrix": "normalMatrix",
				"u_SceneLight_0_matrix": "SceneLight_0_matrix",
				"u_SceneLight_0_color": "SceneLight_0_color",
				"u_SceneLight_1_matrix": "SceneLight_1_matrix",
				"u_SceneLight_1_color": "SceneLight_1_color",
				"u_ambient_light_color": "ambient_light_color",
				"u_Cutoff": "Cutoff"
			},
			"states": {
				"enable": [
					2929
				],
				"functions": {
					"depthMask": [true]
				}
			}
		},
		"technique_79348357-432d-4746-8e29-0e25c112e3aa": {
			"program": "program_79348357-432d-4746-8e29-0e25c112e3aa",
			"parameters": {
				"position": {
					"type": 35665,
					"semantic": "POSITION"
				},
				"normal": {
					"type": 35665,
					"semantic": "NORMAL"
				},
				"color": {
					"type": 35666,
					"semantic": "COLOR"
				},
				"texcoord0": {
					"type": 35665,
					"semantic": "TEXCOORD_0"
				},
				"modelViewMatrix": {
					"type": 35676,
					"semantic": "MODELVIEW"
				},
				"projectionMatrix": {
					"type": 35676,
					"semantic": "PROJECTION"
				},
				"normalMatrix": {
					"type": 35675,
					"semantic": "MODELVIEWINVERSETRANSPOSE"
				},
				"SceneLight_0_matrix": {
					"type": 35676,
					"semantic": "MODELVIEW",
					"node": "node_SceneLight_0_i1"
				},
				"SceneLight_0_color": {
					"type": 35666,
					"node": "node_SceneLight_0_i1"
				},
				"SceneLight_1_matrix": {
					"type": 35676,
					"semantic": "MODELVIEW",
					"node": "node_SceneLight_1_i2"
				},
				"SceneLight_1_color": {
					"type": 35666,
					"node": "node_SceneLight_1_i2"
				},
				"ambient_light_color": {
					"type": 35666
				},
				"Cutoff": {
					"type": 5126
				},
				"Color": {
					"type": 35666
				}
			},
			"attributes": {
				"a_position": "position",
				"a_normal": "normal",
				"a_color": "color",
				"a_texcoord0": "texcoord0"
			},
			"uniforms": {
				"u_modelViewMatrix": "modelViewMatrix",
				"u_projectionMatrix": "projectionMatrix",
				"u_normalMatrix": "normalMatrix",
				"u_SceneLight_0_matrix": "SceneLight_0_matrix",
				"u_SceneLight_0_color": "SceneLight_0_color",
				"u_SceneLight_1_matrix": "SceneLight_1_matrix",
				"u_SceneLight_1_color": "SceneLight_1_color",
				"u_ambient_light_color": "ambient_light_color",
				"u_Cutoff": "Cutoff",
				"u_Color": "Color"
			},
			"states": {
				"enable": [
					2929
				],
				"functions": {
					"depthMask": [true]
				}
			}
		}
	},
	"materials": {
		"material_a8fea537-da7c-4d4b-817f-24f074725d6d": {
			"technique": "technique_a8fea537-da7c-4d4b-817f-24f074725d6d",
			"values": {
				"SceneLight_0_color": [1.553333, 1.406667, 1.773333, 1],
				"SceneLight_1_color": [0.2712157, 0.2667451, 0.2190588, 1],
				"ambient_light_color": [0.2039216, 0.2941177, 0.3686275, 1],
				"Cutoff": 0.5
			},
			"name": "material_a8fea537-da7c-4d4b-817f-24f074725d6d"
		},
		"material_79348357-432d-4746-8e29-0e25c112e3aa": {
			"technique": "technique_79348357-432d-4746-8e29-0e25c112e3aa",
			"values": {
				"SceneLight_0_color": [1.553333, 1.406667, 1.773333, 1],
				"SceneLight_1_color": [0.2712157, 0.2667451, 0.2190588, 1],
				"ambient_light_color": [0.2039216, 0.2941177, 0.3686275, 1],
				"Cutoff": 0.5,
				"Color": [1, 1, 1, 1]
			},
			"name": "material_79348357-432d-4746-8e29-0e25c112e3aa"
		}
	},
	"nodes": {
		"node_UnlitHull_a8fea537-da7c-4d4b-817f-24f074725d6d_0_i0": {
			"name": "node_UnlitHull_a8fea537-da7c-4d4b-817f-24f074725d6d_0_i0",
			"meshes": [
				"mesh_UnlitHull_a8fea537-da7c-4d4b-817f-24f074725d6d_0_i0"
			],
			"matrix": [1, 0, 0, 0, 0, 1, 0, 0, 0, 0, 1, 0, 0, 0, 0, 1]
		},
		"node_SceneLight_0_i1": {
			"name": "node_SceneLight_0_i1",
			"light": "SceneLight_0",
			"matrix": [0.898794, 0.2191856, -0.3796406, 0, -0.4383712, 0.449397, -0.7783785, 0, -1.490116E-08, 0.8660254, 0.4999999, 0, 0, 0.07816666, 0.0220875, 1]
		},
		"node_SceneLight_1_i2": {
			"name": "node_SceneLight_1_i2",
			"light": "SceneLight_1",
			"matrix": [0.7660446, -0.4924039, -0.4131757, 0, -0.6427875, -0.5868244, -0.4924039, 0, 2.980232E-08, 0.6427875, -0.7660447, 0, 6.780028E-09, 0.0636562, -0.0602054, 1]
		},
		"node_MatteHull_79348357-432d-4746-8e29-0e25c112e3aa_0_i0": {
			"name": "node_MatteHull_79348357-432d-4746-8e29-0e25c112e3aa_0_i0",
			"meshes": [
				"mesh_MatteHull_79348357-432d-4746-8e29-0e25c112e3aa_0_i0"
			],
			"matrix": [1, 0, 0, 0, 0, 1, 0, 0, 0, 0, 1, 0, 0, 0, 0, 1]
		}
	},
	"scene": "defaultScene",
	"scenes": {
		"defaultScene": {
			"nodes": [
				"node_UnlitHull_a8fea537-da7c-4d4b-817f-24f074725d6d_0_i0",
				"node_SceneLight_0_i1",
				"node_SceneLight_1_i2",
				"node_MatteHull_79348357-432d-4746-8e29-0e25c112e3aa_0_i0"
			],
			"extras": {
				"TB_EnvironmentGuid": "0ca88298-e5e8-4e94-aad8-4b4f6c80ae52",
				"TB_Environment": "Blue",
				"TB_UseGradient": "false",
				"TB_SkyColorA": "0.1803922, 0.2352941, 0.4117647",
				"TB_SkyColorB": "0.3568628, 0.3921569, 0.6",
				"TB_SkyGradientDirection": "0, 1, 0",
				"TB_FogColor": "0.6313726, 0.7137255, 0.8941177",
				"TB_FogDensity": "0.005",
				"TB_SkyColorHorizon": "0.1803922, 0.2352941, 0.4117647",
				"TB_SkyColorZenith": "0.3568628, 0.3921569, 0.6"
			}
		}
	}
}