# Blender v2.81 (sub 16) OBJ File: ''
# www.blender.org
mtllib platformRim.mtl
o Cylinder.001
v -0.000000 -0.619402 -5.278484
v -0.000000 0.619402 -5.278484
v 1.029781 -0.619402 -5.177059
v 1.029781 0.619402 -5.177059
v 2.019988 -0.619402 -4.876684
v 2.019988 0.619402 -4.876684
v 2.932569 -0.619402 -4.388898
v 2.932569 0.619402 -4.388898
v 3.732452 -0.619402 -3.732451
v 3.732452 0.619402 -3.732451
v 4.388900 -0.619402 -2.932568
v 4.388900 0.619402 -2.932568
v 4.876684 -0.619402 -2.019987
v 4.876684 0.619402 -2.019987
v 5.177060 -0.619402 -1.029780
v 5.177060 0.619402 -1.029780
v 5.278484 -0.619402 0.000001
v 5.278484 0.619402 0.000001
v 5.177061 -0.619402 1.029782
v 5.177061 0.619402 1.029782
v 4.876684 -0.619402 2.019989
v 4.876684 0.619402 2.019989
v 4.388900 -0.619402 2.932571
v 4.388900 0.619402 2.932571
v 3.732452 -0.619402 3.732454
v 3.732452 0.619402 3.732454
v 2.932569 -0.619402 4.388901
v 2.932569 0.619402 4.388901
v 2.019988 -0.619402 4.876686
v 2.019988 0.619402 4.876686
v 1.029780 -0.619402 5.177062
v 1.029780 0.619402 5.177062
v -0.000002 -0.619402 5.278487
v -0.000002 0.619402 5.278487
v -1.029784 -0.619402 5.177061
v -1.029784 0.619402 5.177061
v -2.019992 -0.619402 4.876685
v -2.019992 0.619402 4.876685
v -2.932572 -0.619402 4.388899
v -2.932572 0.619402 4.388899
v -3.732455 -0.619402 3.732452
v -3.732455 0.619402 3.732452
v -4.388902 -0.619402 2.932567
v -4.388902 0.619402 2.932567
v -4.876686 -0.619402 2.019986
v -4.876686 0.619402 2.019986
v -5.177062 -0.619402 1.029778
v -5.177062 0.619402 1.029778
v -5.278485 -0.619402 -0.000004
v -5.278485 0.619402 -0.000004
v -5.177060 -0.619402 -1.029785
v -5.177060 0.619402 -1.029785
v -4.876682 -0.619402 -2.019993
v -4.876682 0.619402 -2.019993
v -4.388896 -0.619402 -2.932573
v -4.388896 0.619402 -2.932573
v -3.732448 -0.619402 -3.732456
v -3.732448 0.619402 -3.732456
v -2.932563 -0.619402 -4.388903
v -2.932563 0.619402 -4.388903
v -2.019982 -0.619402 -4.876686
v -2.019982 0.619402 -4.876686
v -1.029774 -0.619402 -5.177061
v -1.029774 0.619402 -5.177061
v 4.939888 -0.619402 -0.982604
v 4.939888 0.619402 -0.982604
v 5.036666 0.619402 0.000001
v 5.036666 -0.619402 0.000001
v 4.939888 0.619402 0.982606
v 4.939888 -0.619402 0.982606
v 4.653273 0.619402 1.927449
v 4.653273 -0.619402 1.927449
v 4.187835 -0.619402 2.798223
v 4.187835 0.619402 2.798223
v 3.561460 -0.619402 3.561462
v 3.561460 0.619402 3.561462
v 2.798221 -0.619402 4.187837
v 2.798221 0.619402 4.187837
v 1.927448 -0.619402 4.653275
v 1.927448 0.619402 4.653275
v 0.982603 -0.619402 4.939890
v 0.982603 0.619402 4.939890
v -0.000002 0.619402 5.036668
v -0.000002 -0.619402 5.036668
v -0.982607 0.619402 4.939889
v -0.982607 -0.619402 4.939889
v -1.927451 0.619402 4.653273
v -1.927451 -0.619402 4.653273
v -2.798225 -0.619402 4.187835
v -2.798225 0.619402 4.187835
v -4.187838 -0.619402 2.798220
v -4.187838 0.619402 2.798220
v -4.653275 0.619402 1.927446
v -4.653275 -0.619402 1.927446
v -3.561464 -0.619402 3.561460
v -3.561464 0.619402 3.561460
v -5.036667 -0.619402 -0.000004
v -5.036667 0.619402 -0.000004
v -4.939888 -0.619402 -0.982609
v -4.939888 0.619402 -0.982609
v -4.939890 -0.619402 0.982602
v -4.939890 0.619402 0.982602
v 4.653273 0.619402 -1.927448
v 4.653273 -0.619402 -1.927448
v 4.187835 0.619402 -2.798220
v 4.187835 -0.619402 -2.798220
v -4.653271 0.619402 -1.927453
v -4.653271 -0.619402 -1.927453
v -4.187833 0.619402 -2.798226
v -4.187833 -0.619402 -2.798226
v 3.561460 0.619402 -3.561460
v 3.561460 -0.619402 -3.561460
v -3.561457 0.619402 -3.561464
v -3.561457 -0.619402 -3.561464
v 2.798222 -0.619402 -4.187835
v 2.798222 0.619402 -4.187835
v -2.798217 -0.619402 -4.187838
v -2.798217 0.619402 -4.187838
v -1.927442 -0.619402 -4.653275
v -1.927442 0.619402 -4.653275
v 1.927449 -0.619402 -4.653272
v 1.927449 0.619402 -4.653272
v 0.982605 0.619402 -4.939887
v 0.982605 -0.619402 -4.939887
v -0.000000 0.619402 -5.036665
v -0.000000 -0.619402 -5.036665
v -0.982598 0.619402 -4.939888
v -0.982598 -0.619402 -4.939889
vt 1.000000 0.500000
vt 1.000000 1.000000
vt 0.968750 1.000000
vt 0.968750 0.500000
vt 0.937500 1.000000
vt 0.937500 0.500000
vt 0.906250 1.000000
vt 0.906250 0.500000
vt 0.875000 1.000000
vt 0.875000 0.500000
vt 0.843750 1.000000
vt 0.843750 0.500000
vt 0.812500 1.000000
vt 0.812500 0.500000
vt 0.781250 1.000000
vt 0.781250 0.500000
vt 0.750000 1.000000
vt 0.750000 0.500000
vt 0.718750 1.000000
vt 0.718750 0.500000
vt 0.687500 1.000000
vt 0.687500 0.500000
vt 0.656250 1.000000
vt 0.656250 0.500000
vt 0.625000 1.000000
vt 0.625000 0.500000
vt 0.593750 1.000000
vt 0.593750 0.500000
vt 0.562500 1.000000
vt 0.562500 0.500000
vt 0.531250 1.000000
vt 0.531250 0.500000
vt 0.500000 1.000000
vt 0.500000 0.500000
vt 0.468750 1.000000
vt 0.468750 0.500000
vt 0.437500 1.000000
vt 0.437500 0.500000
vt 0.406250 1.000000
vt 0.406250 0.500000
vt 0.375000 1.000000
vt 0.375000 0.500000
vt 0.343750 1.000000
vt 0.343750 0.500000
vt 0.312500 1.000000
vt 0.312500 0.500000
vt 0.281250 1.000000
vt 0.281250 0.500000
vt 0.250000 1.000000
vt 0.250000 0.500000
vt 0.218750 1.000000
vt 0.218750 0.500000
vt 0.187500 1.000000
vt 0.187500 0.500000
vt 0.156250 1.000000
vt 0.156250 0.500000
vt 0.125000 1.000000
vt 0.125000 0.500000
vt 0.093750 1.000000
vt 0.093750 0.500000
vt 0.062500 1.000000
vt 0.062500 0.500000
vt 0.296822 0.485388
vt 0.250000 0.490000
vt 0.203179 0.485389
vt 0.158156 0.471731
vt 0.116663 0.449553
vt 0.080295 0.419706
vt 0.050447 0.383337
vt 0.028269 0.341844
vt 0.014612 0.296822
vt 0.010000 0.250000
vt 0.020995 0.250000
vt 0.025395 0.294677
vt 0.038427 0.337637
vt 0.059589 0.377229
vt 0.088069 0.411931
vt 0.122772 0.440411
vt 0.162364 0.461573
vt 0.205324 0.474605
vt 0.250000 0.479005
vt 0.294677 0.474605
vt 0.337636 0.461573
vt 0.377228 0.440411
vt 0.411931 0.411931
vt 0.440411 0.377228
vt 0.461573 0.337636
vt 0.474605 0.294677
vt 0.479005 0.250000
vt 0.490000 0.250000
vt 0.485388 0.296822
vt 0.471731 0.341844
vt 0.449553 0.383337
vt 0.419706 0.419706
vt 0.383337 0.449553
vt 0.341844 0.471731
vt 0.031250 1.000000
vt 0.031250 0.500000
vt 0.000000 1.000000
vt 0.000000 0.500000
vt 0.750000 0.490000
vt 0.796822 0.485388
vt 0.841844 0.471731
vt 0.883337 0.449553
vt 0.919706 0.419706
vt 0.949553 0.383337
vt 0.971731 0.341844
vt 0.985388 0.296822
vt 0.990000 0.250000
vt 0.979005 0.250000
vt 0.974605 0.294677
vt 0.961573 0.337636
vt 0.940410 0.377228
vt 0.911931 0.411931
vt 0.877228 0.440411
vt 0.837636 0.461573
vt 0.794677 0.474605
vt 0.750000 0.479005
vt 0.705324 0.474605
vt 0.662364 0.461573
vt 0.622772 0.440411
vt 0.588069 0.411931
vt 0.559589 0.377229
vt 0.538427 0.337637
vt 0.525395 0.294677
vt 0.520995 0.250000
vt 0.510000 0.250000
vt 0.514612 0.296822
vt 0.528269 0.341844
vt 0.550447 0.383337
vt 0.580295 0.419706
vt 0.616663 0.449553
vt 0.658156 0.471731
vt 0.703179 0.485389
vt 0.718750 0.611921
vt 0.718750 0.921622
vt 0.750000 0.921622
vt 0.750000 0.611921
vt 0.625000 0.611921
vt 0.625000 0.921622
vt 0.656250 0.921622
vt 0.656250 0.611921
vt 0.687500 0.921622
vt 0.687500 0.611921
vt 0.218750 0.611921
vt 0.218750 0.921622
vt 0.250000 0.921622
vt 0.250000 0.611921
vt 0.781250 0.611921
vt 0.781250 0.921622
vt 0.812500 0.921622
vt 0.812500 0.611921
vt 0.843750 0.611921
vt 0.843750 0.921622
vt 0.875000 0.921622
vt 0.875000 0.611921
vt 0.000000 0.611921
vt 0.000000 0.921622
vt 0.031250 0.921622
vt 0.031250 0.611921
vt 0.468750 0.611921
vt 0.468750 0.921622
vt 0.500000 0.921622
vt 0.500000 0.611921
vt 0.156250 0.611921
vt 0.156250 0.921622
vt 0.187500 0.921622
vt 0.187500 0.611921
vt 0.531250 0.921622
vt 0.531250 0.611921
vt 0.062500 0.921622
vt 0.062500 0.611921
vt 0.906250 0.921622
vt 0.906250 0.611921
vt 0.406250 0.611921
vt 0.406250 0.921622
vt 0.437500 0.921622
vt 0.437500 0.611921
vt 0.474605 0.205323
vt 0.461573 0.162364
vt 0.440411 0.122772
vt 0.411931 0.088069
vt 0.377228 0.059589
vt 0.337636 0.038427
vt 0.294677 0.025395
vt 0.250000 0.020995
vt 0.205323 0.025395
vt 0.162364 0.038427
vt 0.122771 0.059589
vt 0.088069 0.088069
vt 0.059589 0.122772
vt 0.038427 0.162364
vt 0.025395 0.205324
vt 0.014611 0.203179
vt 0.028269 0.158156
vt 0.050447 0.116663
vt 0.080294 0.080294
vt 0.116663 0.050447
vt 0.158156 0.028269
vt 0.203178 0.014612
vt 0.250000 0.010000
vt 0.296822 0.014612
vt 0.341844 0.028269
vt 0.383337 0.050447
vt 0.419706 0.080294
vt 0.449553 0.116663
vt 0.471731 0.158156
vt 0.485388 0.203178
vt 0.937500 0.921622
vt 0.937500 0.611921
vt 0.593750 0.611921
vt 0.593750 0.921622
vt 0.093750 0.611921
vt 0.093750 0.921622
vt 0.125000 0.921622
vt 0.125000 0.611921
vt 0.562500 0.611921
vt 0.562500 0.921622
vt 0.375000 0.611921
vt 0.375000 0.921622
vt 0.312500 0.611921
vt 0.312500 0.921622
vt 0.343750 0.921622
vt 0.343750 0.611921
vt 0.968750 0.611921
vt 0.968750 0.921622
vt 1.000000 0.921622
vt 1.000000 0.611921
vt 0.281250 0.921622
vt 0.281250 0.611921
vt 0.525395 0.205323
vt 0.538427 0.162364
vt 0.559589 0.122772
vt 0.588069 0.088069
vt 0.622771 0.059589
vt 0.662363 0.038427
vt 0.705323 0.025395
vt 0.750000 0.020995
vt 0.794676 0.025395
vt 0.837636 0.038427
vt 0.877228 0.059589
vt 0.911931 0.088069
vt 0.940410 0.122772
vt 0.961573 0.162364
vt 0.974605 0.205323
vt 0.985388 0.203178
vt 0.971731 0.158156
vt 0.949553 0.116663
vt 0.919706 0.080294
vt 0.883337 0.050447
vt 0.841844 0.028269
vt 0.796822 0.014612
vt 0.750000 0.010000
vt 0.703178 0.014612
vt 0.658156 0.028269
vt 0.616663 0.050447
vt 0.580294 0.080294
vt 0.550447 0.116663
vt 0.528269 0.158156
vt 0.514611 0.203179
vn 0.0980 0.0000 -0.9952
vn 0.2903 0.0000 -0.9569
vn 0.4714 0.0000 -0.8819
vn 0.6344 0.0000 -0.7730
vn 0.7730 0.0000 -0.6344
vn 0.8819 0.0000 -0.4714
vn 0.9569 0.0000 -0.2903
vn 0.9952 0.0000 -0.0980
vn 0.9952 0.0000 0.0980
vn 0.9569 0.0000 0.2903
vn 0.8819 0.0000 0.4714
vn 0.7730 0.0000 0.6344
vn 0.6344 0.0000 0.7730
vn 0.4714 0.0000 0.8819
vn 0.2903 0.0000 0.9569
vn 0.0980 0.0000 0.9952
vn -0.0980 0.0000 0.9952
vn -0.2903 0.0000 0.9569
vn -0.4714 0.0000 0.8819
vn -0.6344 0.0000 0.7730
vn -0.7730 0.0000 0.6344
vn -0.8819 0.0000 0.4714
vn -0.9569 0.0000 0.2903
vn -0.9952 0.0000 0.0980
vn -0.9952 0.0000 -0.0980
vn -0.9569 0.0000 -0.2903
vn -0.8819 0.0000 -0.4714
vn -0.7730 0.0000 -0.6344
vn -0.6344 0.0000 -0.7730
vn -0.4714 0.0000 -0.8819
vn -0.0000 1.0000 0.0000
vn -0.2903 0.0000 -0.9569
vn -0.0980 0.0000 -0.9952
vn -0.0000 -1.0000 0.0000
usemtl None
s off
f 1/1/1 2/2/1 4/3/1 3/4/1
f 3/4/2 4/3/2 6/5/2 5/6/2
f 5/6/3 6/5/3 8/7/3 7/8/3
f 7/8/4 8/7/4 10/9/4 9/10/4
f 9/10/5 10/9/5 12/11/5 11/12/5
f 11/12/6 12/11/6 14/13/6 13/14/6
f 13/14/7 14/13/7 16/15/7 15/16/7
f 15/16/8 16/15/8 18/17/8 17/18/8
f 17/18/9 18/17/9 20/19/9 19/20/9
f 19/20/10 20/19/10 22/21/10 21/22/10
f 21/22/11 22/21/11 24/23/11 23/24/11
f 23/24/12 24/23/12 26/25/12 25/26/12
f 25/26/13 26/25/13 28/27/13 27/28/13
f 27/28/14 28/27/14 30/29/14 29/30/14
f 29/30/15 30/29/15 32/31/15 31/32/15
f 31/32/16 32/31/16 34/33/16 33/34/16
f 33/34/17 34/33/17 36/35/17 35/36/17
f 35/36/18 36/35/18 38/37/18 37/38/18
f 37/38/19 38/37/19 40/39/19 39/40/19
f 39/40/20 40/39/20 42/41/20 41/42/20
f 41/42/21 42/41/21 44/43/21 43/44/21
f 43/44/22 44/43/22 46/45/22 45/46/22
f 45/46/23 46/45/23 48/47/23 47/48/23
f 47/48/24 48/47/24 50/49/24 49/50/24
f 49/50/25 50/49/25 52/51/25 51/52/25
f 51/52/26 52/51/26 54/53/26 53/54/26
f 53/54/27 54/53/27 56/55/27 55/56/27
f 55/56/28 56/55/28 58/57/28 57/58/28
f 57/58/29 58/57/29 60/59/29 59/60/29
f 59/60/30 60/59/30 62/61/30 61/62/30
f 4/63/31 2/64/31 64/65/31 62/66/31 60/67/31 58/68/31 56/69/31 54/70/31 52/71/31 50/72/31 98/73/31 100/74/31 107/75/31 109/76/31 113/77/31 118/78/31 120/79/31 127/80/31 125/81/31 123/82/31 122/83/31 116/84/31 111/85/31 105/86/31 103/87/31 66/88/31 67/89/31 18/90/31 16/91/31 14/92/31 12/93/31 10/94/31 8/95/31 6/96/31
f 61/62/32 62/61/32 64/97/32 63/98/32
f 63/98/33 64/97/33 2/99/33 1/100/33
f 1/101/34 3/102/34 5/103/34 7/104/34 9/105/34 11/106/34 13/107/34 15/108/34 17/109/34 68/110/34 65/111/34 104/112/34 106/113/34 112/114/34 115/115/34 121/116/34 124/117/34 126/118/34 128/119/34 119/120/34 117/121/34 114/122/34 110/123/34 108/124/34 99/125/34 97/126/34 49/127/34 51/128/34 53/129/34 55/130/34 57/131/34 59/132/34 61/133/34 63/134/34
f 70/135/25 69/136/25 67/137/25 68/138/25
f 75/139/28 76/140/28 74/141/28 73/142/28
f 73/142/27 74/141/27 71/143/27 72/144/27
f 99/145/9 100/146/9 98/147/9 97/148/9
f 65/149/23 66/150/23 103/151/23 104/152/23
f 68/138/24 67/137/24 66/150/24 65/149/24
f 106/153/21 105/154/21 111/155/21 112/156/21
f 126/157/16 125/158/16 127/159/16 128/160/16
f 86/161/1 85/162/1 83/163/1 84/164/1
f 110/165/11 109/166/11 107/167/11 108/168/11
f 84/164/33 83/163/33 82/169/33 81/170/33
f 128/160/15 127/159/15 120/171/15 119/172/15
f 112/156/20 111/155/20 116/173/20 115/174/20
f 89/175/3 90/176/3 87/177/3 88/178/3
f 18/90/31 67/89/31 69/179/31 71/180/31 74/181/31 76/182/31 78/183/31 80/184/31 82/185/31 83/186/31 85/187/31 87/188/31 90/189/31 96/190/31 92/191/31 93/192/31 102/193/31 98/73/31 50/72/31 48/194/31 46/195/31 44/196/31 42/197/31 40/198/31 38/199/31 36/200/31 34/201/31 32/202/31 30/203/31 28/204/31 26/205/31 24/206/31 22/207/31 20/208/31
f 115/174/19 116/173/19 122/209/19 121/210/19
f 77/211/29 78/212/29 76/140/29 75/139/29
f 117/213/13 118/214/13 113/215/13 114/216/13
f 108/168/10 107/167/10 100/146/10 99/145/10
f 79/217/30 80/218/30 78/212/30 77/211/30
f 95/219/4 96/220/4 90/176/4 89/175/4
f 94/221/6 93/222/6 92/223/6 91/224/6
f 124/225/17 123/226/17 125/227/17 126/228/17
f 104/152/22 103/151/22 105/154/22 106/153/22
f 97/148/8 98/147/8 102/229/8 101/230/8
f 72/144/26 71/143/26 69/136/26 70/135/26
f 88/178/2 87/177/2 85/162/2 86/161/2
f 119/172/14 120/171/14 118/214/14 117/213/14
f 121/210/18 122/209/18 123/226/18 124/225/18
f 81/170/32 82/169/32 80/218/32 79/217/32
f 101/230/7 102/229/7 93/222/7 94/221/7
f 114/216/12 113/215/12 109/166/12 110/165/12
f 49/127/34 97/126/34 101/231/34 94/232/34 91/233/34 95/234/34 89/235/34 88/236/34 86/237/34 84/238/34 81/239/34 79/240/34 77/241/34 75/242/34 73/243/34 72/244/34 70/245/34 68/110/34 17/109/34 19/246/34 21/247/34 23/248/34 25/249/34 27/250/34 29/251/34 31/252/34 33/253/34 35/254/34 37/255/34 39/256/34 41/257/34 43/258/34 45/259/34 47/260/34
f 91/224/5 92/223/5 96/220/5 95/219/5
