{
	"asset": {
		"generator": "Tilt Brush 23.2.28f36f08b",
		"version": "1.1",
		"copyright": "Unknown."
	},
	"buffers": {
		"buffer_sketch": {
			"byteLength": 245700,
			"type": "arraybuffer",
			"uri": "sketch.bin"
		}
	},
	"accessors": {
		"accessor_position_MatteHull_79348357-432d-4746-8e29-0e25c112e3aa_0_i0": {
			"bufferView": "vec3BufferView",
			"byteOffset": 0,
			"byteStride": 12,
			"componentType": 5126,
			"count": 3834,
			"max": [ 0.13907361, 1.16671038, 0.43647489 ],
			"min": [ -0.109100021, 0.895937264, 0.111591876 ],
			"type": "VEC3"
		},
		"accessor_normal_MatteHull_79348357-432d-4746-8e29-0e25c112e3aa_0_i0": {
			"bufferView": "vec3BufferView",
			"byteOffset": 46008,
			"byteStride": 12,
			"componentType": 5126,
			"count": 3834,
			"type": "VEC3"
		},
		"accessor_color_MatteHull_79348357-432d-4746-8e29-0e25c112e3aa_0_i0": {
			"bufferView": "vec4BufferView",
			"byteOffset": 0,
			"byteStride": 16,
			"componentType": 5126,
			"count": 3834,
			"type": "VEC4"
		},
		"accessor_uv0_MatteHull_79348357-432d-4746-8e29-0e25c112e3aa_0_i0": {
			"bufferView": "vec3BufferView",
			"byteOffset": 92016,
			"byteStride": 12,
			"componentType": 5126,
			"count": 3834,
			"type": "VEC3"
		},
		"accessor_indices_0_MatteHull_79348357-432d-4746-8e29-0e25c112e3aa_0_i0": {
			"bufferView": "ushortBufferView",
			"byteOffset": 0,
			"byteStride": 0,
			"componentType": 5123,
			"count": 3834,
			"max": [ 3833 ],
			"min": [ 0 ],
			"type": "SCALAR"
		},
		"accessor_position_Icing_2f212815-f4d3-c1a4-681a-feeaf9c6dc37_0_i0": {
			"bufferView": "vec3BufferView",
			"byteOffset": 138024,
			"byteStride": 12,
			"componentType": 5126,
			"count": 498,
			"max": [ 0.255149573, 1.23839927, 0.171302244 ],
			"min": [ 0.076729618, 0.94969815, -0.0351604596 ],
			"type": "VEC3"
		},
		"accessor_normal_Icing_2f212815-f4d3-c1a4-681a-feeaf9c6dc37_0_i0": {
			"bufferView": "vec3BufferView",
			"byteOffset": 144000,
			"byteStride": 12,
			"componentType": 5126,
			"count": 498,
			"type": "VEC3"
		},
		"accessor_color_Icing_2f212815-f4d3-c1a4-681a-feeaf9c6dc37_0_i0": {
			"bufferView": "vec4BufferView",
			"byteOffset": 61344,
			"byteStride": 16,
			"componentType": 5126,
			"count": 498,
			"type": "VEC4"
		},
		"accessor_tangent_Icing_2f212815-f4d3-c1a4-681a-feeaf9c6dc37_0_i0": {
			"bufferView": "vec4BufferView",
			"byteOffset": 69312,
			"byteStride": 16,
			"componentType": 5126,
			"count": 498,
			"type": "VEC4"
		},
		"accessor_uv0_Icing_2f212815-f4d3-c1a4-681a-feeaf9c6dc37_0_i0": {
			"bufferView": "vec3BufferView",
			"byteOffset": 149976,
			"byteStride": 12,
			"componentType": 5126,
			"count": 498,
			"type": "VEC3"
		},
		"accessor_indices_0_Icing_2f212815-f4d3-c1a4-681a-feeaf9c6dc37_0_i0": {
			"bufferView": "ushortBufferView",
			"byteOffset": 7668,
			"byteStride": 0,
			"componentType": 5123,
			"count": 2400,
			"max": [ 497 ],
			"min": [ 0 ],
			"type": "SCALAR"
		}
	},
	"bufferViews": {
		"ushortBufferView": {
			"buffer": "buffer_sketch",
			"byteLength": 12468,
			"byteOffset": 0,
			"target": 34963
		},
		"vec3BufferView": {
			"buffer": "buffer_sketch",
			"byteLength": 155952,
			"byteOffset": 12468,
			"target": 34962
		},
		"vec4BufferView": {
			"buffer": "buffer_sketch",
			"byteLength": 77280,
			"byteOffset": 168420,
			"target": 34962
		}
	},
	"meshes": {
		"mesh_MatteHull_79348357-432d-4746-8e29-0e25c112e3aa_0_i0": {
			"name": "mesh_MatteHull_79348357-432d-4746-8e29-0e25c112e3aa_0_i0",
			"primitives": [
				{
					"attributes": {
						"POSITION": "accessor_position_MatteHull_79348357-432d-4746-8e29-0e25c112e3aa_0_i0",
						"NORMAL": "accessor_normal_MatteHull_79348357-432d-4746-8e29-0e25c112e3aa_0_i0",
						"COLOR": "accessor_color_MatteHull_79348357-432d-4746-8e29-0e25c112e3aa_0_i0",
						"TEXCOORD_0": "accessor_uv0_MatteHull_79348357-432d-4746-8e29-0e25c112e3aa_0_i0"
					},
					"indices": "accessor_indices_0_MatteHull_79348357-432d-4746-8e29-0e25c112e3aa_0_i0",
					"material": "material_79348357-432d-4746-8e29-0e25c112e3aa",
					"mode": 4
				}
			]
		},
		"mesh_Icing_2f212815-f4d3-c1a4-681a-feeaf9c6dc37_0_i0": {
			"name": "mesh_Icing_2f212815-f4d3-c1a4-681a-feeaf9c6dc37_0_i0",
			"primitives": [
				{
					"attributes": {
						"POSITION": "accessor_position_Icing_2f212815-f4d3-c1a4-681a-feeaf9c6dc37_0_i0",
						"NORMAL": "accessor_normal_Icing_2f212815-f4d3-c1a4-681a-feeaf9c6dc37_0_i0",
						"COLOR": "accessor_color_Icing_2f212815-f4d3-c1a4-681a-feeaf9c6dc37_0_i0",
						"TANGENT": "accessor_tangent_Icing_2f212815-f4d3-c1a4-681a-feeaf9c6dc37_0_i0",
						"TEXCOORD_0": "accessor_uv0_Icing_2f212815-f4d3-c1a4-681a-feeaf9c6dc37_0_i0"
					},
					"indices": "accessor_indices_0_Icing_2f212815-f4d3-c1a4-681a-feeaf9c6dc37_0_i0",
					"material": "material_2f212815-f4d3-c1a4-681a-feeaf9c6dc37",
					"mode": 4
				}
			]
		}
	},
	"shaders": {
		"vertex_79348357-432d-4746-8e29-0e25c112e3aa": {
			"type": 35633,
			"uri": "https://www.tiltbrush.com/shaders/brushes/MatteHull-79348357-432d-4746-8e29-0e25c112e3aa/MatteHull-79348357-432d-4746-8e29-0e25c112e3aa-v10.0-vertex.glsl"
		},
		"fragment_79348357-432d-4746-8e29-0e25c112e3aa": {
			"type": 35632,
			"uri": "https://www.tiltbrush.com/shaders/brushes/MatteHull-79348357-432d-4746-8e29-0e25c112e3aa/MatteHull-79348357-432d-4746-8e29-0e25c112e3aa-v10.0-fragment.glsl"
		},
		"vertex_2f212815-f4d3-c1a4-681a-feeaf9c6dc37": {
			"type": 35633,
			"uri": "https://www.tiltbrush.com/shaders/brushes/Icing-2f212815-f4d3-c1a4-681a-feeaf9c6dc37/Icing-2f212815-f4d3-c1a4-681a-feeaf9c6dc37-v10.0-vertex.glsl"
		},
		"fragment_2f212815-f4d3-c1a4-681a-feeaf9c6dc37": {
			"type": 35632,
			"uri": "https://www.tiltbrush.com/shaders/brushes/Icing-2f212815-f4d3-c1a4-681a-feeaf9c6dc37/Icing-2f212815-f4d3-c1a4-681a-feeaf9c6dc37-v10.0-fragment.glsl"
		}
	},
	"programs": {
		"program_79348357-432d-4746-8e29-0e25c112e3aa": {
			"attributes": [
				"a_position",
				"a_normal",
				"a_color",
				"a_texcoord0"
			],
			"vertexShader": "vertex_79348357-432d-4746-8e29-0e25c112e3aa",
			"fragmentShader": "fragment_79348357-432d-4746-8e29-0e25c112e3aa"
		},
		"program_2f212815-f4d3-c1a4-681a-feeaf9c6dc37": {
			"attributes": [
				"a_position",
				"a_normal",
				"a_color",
				"a_tangent",
				"a_texcoord0"
			],
			"vertexShader": "vertex_2f212815-f4d3-c1a4-681a-feeaf9c6dc37",
			"fragmentShader": "fragment_2f212815-f4d3-c1a4-681a-feeaf9c6dc37"
		}
	},
	"techniques": {
		"technique_79348357-432d-4746-8e29-0e25c112e3aa": {
			"program": "program_79348357-432d-4746-8e29-0e25c112e3aa",
			"parameters": {
				"position": {
					"type": 35665,
					"semantic": "POSITION"
				},
				"normal": {
					"type": 35665,
					"semantic": "NORMAL"
				},
				"color": {
					"type": 35666,
					"semantic": "COLOR"
				},
				"texcoord0": {
					"type": 35665,
					"semantic": "TEXCOORD_0"
				},
				"modelViewMatrix": {
					"type": 35676,
					"semantic": "MODELVIEW"
				},
				"projectionMatrix": {
					"type": 35676,
					"semantic": "PROJECTION"
				},
				"normalMatrix": {
					"type": 35675,
					"semantic": "MODELVIEWINVERSETRANSPOSE"
				},
				"SceneLight_0_matrix": {
					"type": 35676,
					"semantic": "MODELVIEW",
					"node": "node_SceneLight_0_i1"
				},
				"SceneLight_0_color": {
					"type": 35666,
					"node": "node_SceneLight_0_i1"
				},
				"SceneLight_1_matrix": {
					"type": 35676,
					"semantic": "MODELVIEW",
					"node": "node_SceneLight_1_i2"
				},
				"SceneLight_1_color": {
					"type": 35666,
					"node": "node_SceneLight_1_i2"
				},
				"ambient_light_color": {
					"type": 35666
				},
				"Cutoff": {
					"type": 5126
				},
				"Color": {
					"type": 35666
				}
			},
			"attributes": {
				"a_position": "position",
				"a_normal": "normal",
				"a_color": "color",
				"a_texcoord0": "texcoord0"
			},
			"uniforms": {
				"u_modelViewMatrix": "modelViewMatrix",
				"u_projectionMatrix": "projectionMatrix",
				"u_normalMatrix": "normalMatrix",
				"u_SceneLight_0_matrix": "SceneLight_0_matrix",
				"u_SceneLight_0_color": "SceneLight_0_color",
				"u_SceneLight_1_matrix": "SceneLight_1_matrix",
				"u_SceneLight_1_color": "SceneLight_1_color",
				"u_ambient_light_color": "ambient_light_color",
				"u_Cutoff": "Cutoff",
				"u_Color": "Color"
			},
			"states": {
				"enable": [
					2929
				],
				"functions": {
					"depthMask": [true]
				}
			}
		},
		"technique_2f212815-f4d3-c1a4-681a-feeaf9c6dc37": {
			"program": "program_2f212815-f4d3-c1a4-681a-feeaf9c6dc37",
			"parameters": {
				"position": {
					"type": 35665,
					"semantic": "POSITION"
				},
				"normal": {
					"type": 35665,
					"semantic": "NORMAL"
				},
				"color": {
					"type": 35666,
					"semantic": "COLOR"
				},
				"tangent": {
					"type": 35666,
					"semantic": "TANGENT"
				},
				"texcoord0": {
					"type": 35665,
					"semantic": "TEXCOORD_0"
				},
				"modelViewMatrix": {
					"type": 35676,
					"semantic": "MODELVIEW"
				},
				"projectionMatrix": {
					"type": 35676,
					"semantic": "PROJECTION"
				},
				"normalMatrix": {
					"type": 35675,
					"semantic": "MODELVIEWINVERSETRANSPOSE"
				},
				"SceneLight_0_matrix": {
					"type": 35676,
					"semantic": "MODELVIEW",
					"node": "node_SceneLight_0_i1"
				},
				"SceneLight_0_color": {
					"type": 35666,
					"node": "node_SceneLight_0_i1"
				},
				"SceneLight_1_matrix": {
					"type": 35676,
					"semantic": "MODELVIEW",
					"node": "node_SceneLight_1_i2"
				},
				"SceneLight_1_color": {
					"type": 35666,
					"node": "node_SceneLight_1_i2"
				},
				"ambient_light_color": {
					"type": 35666
				},
				"Shininess": {
					"type": 5126
				},
				"Cutoff": {
					"type": 5126
				},
				"Color": {
					"type": 35666
				},
				"SpecColor": {
					"type": 35666
				},
				"BumpMap_TexelSize": {
					"type": 35666
				},
				"BumpMap": {
					"type": 35678
				}
			},
			"attributes": {
				"a_position": "position",
				"a_normal": "normal",
				"a_color": "color",
				"a_tangent": "tangent",
				"a_texcoord0": "texcoord0"
			},
			"uniforms": {
				"u_modelViewMatrix": "modelViewMatrix",
				"u_projectionMatrix": "projectionMatrix",
				"u_normalMatrix": "normalMatrix",
				"u_SceneLight_0_matrix": "SceneLight_0_matrix",
				"u_SceneLight_0_color": "SceneLight_0_color",
				"u_SceneLight_1_matrix": "SceneLight_1_matrix",
				"u_SceneLight_1_color": "SceneLight_1_color",
				"u_ambient_light_color": "ambient_light_color",
				"u_Shininess": "Shininess",
				"u_Cutoff": "Cutoff",
				"u_Color": "Color",
				"u_SpecColor": "SpecColor",
				"u_BumpMap_TexelSize": "BumpMap_TexelSize",
				"u_BumpMap": "BumpMap"
			},
			"states": {
				"enable": [
					2929,
					2884
				],
				"functions": {
					"depthMask": [true]
				}
			}
		}
	},
	"samplers": {
		"sampler_LINEAR_LINEAR_MIPMAP_LINEAR_REPEAT": {
			"magFilter": 9729,
			"minFilter": 9987,
			"wrapS": 10497,
			"wrapT": 10497
		}
	},
	"textures": {
		"texture_2f212815-f4d3-c1a4-681a-feeaf9c6dc37_BumpMap": {
			"format": 6408,
			"internalFormat": 6408,
			"sampler": "sampler_LINEAR_LINEAR_MIPMAP_LINEAR_REPEAT",
			"source": "image_2f212815-f4d3-c1a4-681a-feeaf9c6dc37_BumpMap",
			"target": 3553,
			"type": 5121
		}
	},
	"images": {
		"image_2f212815-f4d3-c1a4-681a-feeaf9c6dc37_BumpMap": {
			"uri": "https://www.tiltbrush.com/shaders/brushes/Icing-2f212815-f4d3-c1a4-681a-feeaf9c6dc37/Icing-2f212815-f4d3-c1a4-681a-feeaf9c6dc37-v10.0-BumpMap.png"
		}
	},
	"materials": {
		"material_79348357-432d-4746-8e29-0e25c112e3aa": {
			"technique": "technique_79348357-432d-4746-8e29-0e25c112e3aa",
			"values": {
				"SceneLight_0_color": [0.7360893, 0.6665873, 0.8403423, 1],
				"SceneLight_1_color": [0.2712157, 0.2667451, 0.2190588, 1],
				"ambient_light_color": [0.2039216, 0.2941177, 0.3686275, 1],
				"Cutoff": 0.5,
				"Color": [1, 1, 1, 1]
			},
			"name": "material_79348357-432d-4746-8e29-0e25c112e3aa"
		},
		"material_2f212815-f4d3-c1a4-681a-feeaf9c6dc37": {
			"technique": "technique_2f212815-f4d3-c1a4-681a-feeaf9c6dc37",
			"values": {
				"SceneLight_0_color": [0.7360893, 0.6665873, 0.8403423, 1],
				"SceneLight_1_color": [0.2712157, 0.2667451, 0.2190588, 1],
				"ambient_light_color": [0.2039216, 0.2941177, 0.3686275, 1],
				"Shininess": 0.15,
				"Cutoff": 0.5,
				"Color": [1, 1, 1, 1],
				"SpecColor": [0, 0, 0, 0],
				"BumpMap_TexelSize": [0.0009765625, 0.0078125, 1024, 128],
				"BumpMap": "texture_2f212815-f4d3-c1a4-681a-feeaf9c6dc37_BumpMap"
			},
			"name": "material_2f212815-f4d3-c1a4-681a-feeaf9c6dc37"
		}
	},
	"nodes": {
		"node_MatteHull_79348357-432d-4746-8e29-0e25c112e3aa_0_i0": {
			"name": "node_MatteHull_79348357-432d-4746-8e29-0e25c112e3aa_0_i0",
			"meshes": [
				"mesh_MatteHull_79348357-432d-4746-8e29-0e25c112e3aa_0_i0"
			],
			"matrix": [1, 0, 0, 0, 0, 1, 0, 0, 0, 0, 1, 0, 0, 0, 0, 1]
		},
		"node_SceneLight_0_i1": {
			"name": "node_SceneLight_0_i1",
			"light": "SceneLight_0",
			"matrix": [0.2755417, 8.940697E-08, 0.9612891, 0, 0.76273, 0.6086419, -0.2186273, 0, -0.5850809, 0.793445, 0.1677061, 0, -0.05538953, 0.8806309, 0.1443477, 1]
		},
		"node_SceneLight_1_i2": {
			"name": "node_SceneLight_1_i2",
			"light": "SceneLight_1",
			"matrix": [0.2909258, -5.960465E-08, -0.9567458, 0, -0.7466859, 0.6252264, -0.2270512, 0, 0.5981827, 0.7804436, 0.1818944, 0, 0.002661676, 0.879993, 0.1450438, 1]
		},
		"node_Icing_2f212815-f4d3-c1a4-681a-feeaf9c6dc37_0_i0": {
			"name": "node_Icing_2f212815-f4d3-c1a4-681a-feeaf9c6dc37_0_i0",
			"meshes": [
				"mesh_Icing_2f212815-f4d3-c1a4-681a-feeaf9c6dc37_0_i0"
			],
			"matrix": [1, 0, 0, 0, 0, 1, 0, 0, 0, 0, 1, 0, 0, 0, 0, 1]
		}
	},
	"scene": "defaultScene",
	"scenes": {
		"defaultScene": {
			"nodes": [
				"node_MatteHull_79348357-432d-4746-8e29-0e25c112e3aa_0_i0",
				"node_SceneLight_0_i1",
				"node_SceneLight_1_i2",
				"node_Icing_2f212815-f4d3-c1a4-681a-feeaf9c6dc37_0_i0"
			],
			"extras": {
				"TB_EnvironmentGuid": "0ca88298-e5e8-4e94-aad8-4b4f6c80ae52",
				"TB_Environment": "Blue",
				"TB_UseGradient": "false",
				"TB_SkyColorA": "0.1803922, 0.2352941, 0.4117647",
				"TB_SkyColorB": "0.3568628, 0.3921569, 0.6",
				"TB_SkyGradientDirection": "0, 1, 0",
				"TB_FogColor": "0.6313726, 0.7137255, 0.8941177",
				"TB_FogDensity": "0.005",
				"TB_SkyColorHorizon": "0.1803922, 0.2352941, 0.4117647",
				"TB_SkyColorZenith": "0.3568628, 0.3921569, 0.6"
			}
		}
	}
}