{
	"asset": {
		"generator": "Tilt Brush 23.2.28f36f08b",
		"version": "1.1",
		"copyright": "Unknown."
	},
	"buffers": {
		"buffer_sketch": {
			"byteLength": 1895676,
			"type": "arraybuffer",
			"uri": "sketch.bin"
		}
	},
	"accessors": {
		"accessor_position_Toon_4391385a-df73-4396-9e33-31e4e4930b27_0_i0": {
			"bufferView": "vec3BufferView",
			"byteOffset": 0,
			"byteStride": 12,
			"componentType": 5126,
			"count": 17414,
			"max": [ -0.730971396, 2.88937902, -1.29779422 ],
			"min": [ -1.51232028, 1.95396173, -1.97847295 ],
			"type": "VEC3"
		},
		"accessor_normal_Toon_4391385a-df73-4396-9e33-31e4e4930b27_0_i0": {
			"bufferView": "vec3BufferView",
			"byteOffset": 208968,
			"byteStride": 12,
			"componentType": 5126,
			"count": 17414,
			"type": "VEC3"
		},
		"accessor_color_Toon_4391385a-df73-4396-9e33-31e4e4930b27_0_i0": {
			"bufferView": "vec4BufferView",
			"byteOffset": 0,
			"byteStride": 16,
			"componentType": 5126,
			"count": 17414,
			"type": "VEC4"
		},
		"accessor_tangent_Toon_4391385a-df73-4396-9e33-31e4e4930b27_0_i0": {
			"bufferView": "vec4BufferView",
			"byteOffset": 278624,
			"byteStride": 16,
			"componentType": 5126,
			"count": 17414,
			"type": "VEC4"
		},
		"accessor_uv0_Toon_4391385a-df73-4396-9e33-31e4e4930b27_0_i0": {
			"bufferView": "vec3BufferView",
			"byteOffset": 417936,
			"byteStride": 12,
			"componentType": 5126,
			"count": 17414,
			"type": "VEC3"
		},
		"accessor_indices_0_Toon_4391385a-df73-4396-9e33-31e4e4930b27_0_i0": {
			"bufferView": "ushortBufferView",
			"byteOffset": 0,
			"byteStride": 0,
			"componentType": 5123,
			"count": 88608,
			"max": [ 17413 ],
			"min": [ 0 ],
			"type": "SCALAR"
		},
		"accessor_position_MatteHull_79348357-432d-4746-8e29-0e25c112e3aa_0_i0": {
			"bufferView": "vec3BufferView",
			"byteOffset": 626904,
			"byteStride": 12,
			"componentType": 5126,
			"count": 9480,
			"max": [ -1.71686423, 2.33227229, -0.975287259 ],
			"min": [ -2.7020967, 1.31767905, -2.33947802 ],
			"type": "VEC3"
		},
		"accessor_normal_MatteHull_79348357-432d-4746-8e29-0e25c112e3aa_0_i0": {
			"bufferView": "vec3BufferView",
			"byteOffset": 740664,
			"byteStride": 12,
			"componentType": 5126,
			"count": 9480,
			"type": "VEC3"
		},
		"accessor_color_MatteHull_79348357-432d-4746-8e29-0e25c112e3aa_0_i0": {
			"bufferView": "vec4BufferView",
			"byteOffset": 557248,
			"byteStride": 16,
			"componentType": 5126,
			"count": 9480,
			"type": "VEC4"
		},
		"accessor_uv0_MatteHull_79348357-432d-4746-8e29-0e25c112e3aa_0_i0": {
			"bufferView": "vec3BufferView",
			"byteOffset": 854424,
			"byteStride": 12,
			"componentType": 5126,
			"count": 9480,
			"type": "VEC3"
		},
		"accessor_indices_0_MatteHull_79348357-432d-4746-8e29-0e25c112e3aa_0_i0": {
			"bufferView": "ushortBufferView",
			"byteOffset": 177216,
			"byteStride": 0,
			"componentType": 5123,
			"count": 9480,
			"max": [ 9479 ],
			"min": [ 0 ],
			"type": "SCALAR"
		},
		"accessor_position_OilPaint_f72ec0e7-a844-4e38-82e3-140c44772699_0_i0": {
			"bufferView": "vec3BufferView",
			"byteOffset": 968184,
			"byteStride": 12,
			"componentType": 5126,
			"count": 320,
			"max": [ -2.69866252, 3.63168883, 0.74041748 ],
			"min": [ -6.39949083, 1.24502659, -1.54187667 ],
			"type": "VEC3"
		},
		"accessor_normal_OilPaint_f72ec0e7-a844-4e38-82e3-140c44772699_0_i0": {
			"bufferView": "vec3BufferView",
			"byteOffset": 972024,
			"byteStride": 12,
			"componentType": 5126,
			"count": 320,
			"type": "VEC3"
		},
		"accessor_color_OilPaint_f72ec0e7-a844-4e38-82e3-140c44772699_0_i0": {
			"bufferView": "vec4BufferView",
			"byteOffset": 708928,
			"byteStride": 16,
			"componentType": 5126,
			"count": 320,
			"type": "VEC4"
		},
		"accessor_tangent_OilPaint_f72ec0e7-a844-4e38-82e3-140c44772699_0_i0": {
			"bufferView": "vec4BufferView",
			"byteOffset": 714048,
			"byteStride": 16,
			"componentType": 5126,
			"count": 320,
			"type": "VEC4"
		},
		"accessor_uv0_OilPaint_f72ec0e7-a844-4e38-82e3-140c44772699_0_i0": {
			"bufferView": "vec2BufferView",
			"byteOffset": 0,
			"byteStride": 8,
			"componentType": 5126,
			"count": 320,
			"type": "VEC2"
		},
		"accessor_indices_0_OilPaint_f72ec0e7-a844-4e38-82e3-140c44772699_0_i0": {
			"bufferView": "ushortBufferView",
			"byteOffset": 196176,
			"byteStride": 0,
			"componentType": 5123,
			"count": 954,
			"max": [ 319 ],
			"min": [ 0 ],
			"type": "SCALAR"
		}
	},
	"bufferViews": {
		"ushortBufferView": {
			"buffer": "buffer_sketch",
			"byteLength": 198084,
			"byteOffset": 0,
			"target": 34963
		},
		"vec2BufferView": {
			"buffer": "buffer_sketch",
			"byteLength": 2560,
			"byteOffset": 198084,
			"target": 34962
		},
		"vec3BufferView": {
			"buffer": "buffer_sketch",
			"byteLength": 975864,
			"byteOffset": 200644,
			"target": 34962
		},
		"vec4BufferView": {
			"buffer": "buffer_sketch",
			"byteLength": 719168,
			"byteOffset": 1176508,
			"target": 34962
		}
	},
	"meshes": {
		"mesh_Toon_4391385a-df73-4396-9e33-31e4e4930b27_0_i0": {
			"name": "mesh_Toon_4391385a-df73-4396-9e33-31e4e4930b27_0_i0",
			"primitives": [
				{
					"attributes": {
						"POSITION": "accessor_position_Toon_4391385a-df73-4396-9e33-31e4e4930b27_0_i0",
						"NORMAL": "accessor_normal_Toon_4391385a-df73-4396-9e33-31e4e4930b27_0_i0",
						"COLOR": "accessor_color_Toon_4391385a-df73-4396-9e33-31e4e4930b27_0_i0",
						"TANGENT": "accessor_tangent_Toon_4391385a-df73-4396-9e33-31e4e4930b27_0_i0",
						"TEXCOORD_0": "accessor_uv0_Toon_4391385a-df73-4396-9e33-31e4e4930b27_0_i0"
					},
					"indices": "accessor_indices_0_Toon_4391385a-df73-4396-9e33-31e4e4930b27_0_i0",
					"material": "material_4391385a-df73-4396-9e33-31e4e4930b27",
					"mode": 4
				}
			]
		},
		"mesh_MatteHull_79348357-432d-4746-8e29-0e25c112e3aa_0_i0": {
			"name": "mesh_MatteHull_79348357-432d-4746-8e29-0e25c112e3aa_0_i0",
			"primitives": [
				{
					"attributes": {
						"POSITION": "accessor_position_MatteHull_79348357-432d-4746-8e29-0e25c112e3aa_0_i0",
						"NORMAL": "accessor_normal_MatteHull_79348357-432d-4746-8e29-0e25c112e3aa_0_i0",
						"COLOR": "accessor_color_MatteHull_79348357-432d-4746-8e29-0e25c112e3aa_0_i0",
						"TEXCOORD_0": "accessor_uv0_MatteHull_79348357-432d-4746-8e29-0e25c112e3aa_0_i0"
					},
					"indices": "accessor_indices_0_MatteHull_79348357-432d-4746-8e29-0e25c112e3aa_0_i0",
					"material": "material_79348357-432d-4746-8e29-0e25c112e3aa",
					"mode": 4
				}
			]
		},
		"mesh_OilPaint_f72ec0e7-a844-4e38-82e3-140c44772699_0_i0": {
			"name": "mesh_OilPaint_f72ec0e7-a844-4e38-82e3-140c44772699_0_i0",
			"primitives": [
				{
					"attributes": {
						"POSITION": "accessor_position_OilPaint_f72ec0e7-a844-4e38-82e3-140c44772699_0_i0",
						"NORMAL": "accessor_normal_OilPaint_f72ec0e7-a844-4e38-82e3-140c44772699_0_i0",
						"COLOR": "accessor_color_OilPaint_f72ec0e7-a844-4e38-82e3-140c44772699_0_i0",
						"TANGENT": "accessor_tangent_OilPaint_f72ec0e7-a844-4e38-82e3-140c44772699_0_i0",
						"TEXCOORD_0": "accessor_uv0_OilPaint_f72ec0e7-a844-4e38-82e3-140c44772699_0_i0"
					},
					"indices": "accessor_indices_0_OilPaint_f72ec0e7-a844-4e38-82e3-140c44772699_0_i0",
					"material": "material_f72ec0e7-a844-4e38-82e3-140c44772699",
					"mode": 4
				}
			]
		}
	},
	"shaders": {
		"vertex_4391385a-df73-4396-9e33-31e4e4930b27": {
			"type": 35633,
			"uri": "https://www.tiltbrush.com/shaders/brushes/Toon-4391385a-df73-4396-9e33-31e4e4930b27/Toon-4391385a-df73-4396-9e33-31e4e4930b27-v10.0-vertex.glsl"
		},
		"fragment_4391385a-df73-4396-9e33-31e4e4930b27": {
			"type": 35632,
			"uri": "https://www.tiltbrush.com/shaders/brushes/Toon-4391385a-df73-4396-9e33-31e4e4930b27/Toon-4391385a-df73-4396-9e33-31e4e4930b27-v10.0-fragment.glsl"
		},
		"vertex_79348357-432d-4746-8e29-0e25c112e3aa": {
			"type": 35633,
			"uri": "https://www.tiltbrush.com/shaders/brushes/MatteHull-79348357-432d-4746-8e29-0e25c112e3aa/MatteHull-79348357-432d-4746-8e29-0e25c112e3aa-v10.0-vertex.glsl"
		},
		"fragment_79348357-432d-4746-8e29-0e25c112e3aa": {
			"type": 35632,
			"uri": "https://www.tiltbrush.com/shaders/brushes/MatteHull-79348357-432d-4746-8e29-0e25c112e3aa/MatteHull-79348357-432d-4746-8e29-0e25c112e3aa-v10.0-fragment.glsl"
		},
		"vertex_f72ec0e7-a844-4e38-82e3-140c44772699": {
			"type": 35633,
			"uri": "https://www.tiltbrush.com/shaders/brushes/OilPaint-f72ec0e7-a844-4e38-82e3-140c44772699/OilPaint-f72ec0e7-a844-4e38-82e3-140c44772699-v10.0-vertex.glsl"
		},
		"fragment_f72ec0e7-a844-4e38-82e3-140c44772699": {
			"type": 35632,
			"uri": "https://www.tiltbrush.com/shaders/brushes/OilPaint-f72ec0e7-a844-4e38-82e3-140c44772699/OilPaint-f72ec0e7-a844-4e38-82e3-140c44772699-v10.0-fragment.glsl"
		}
	},
	"programs": {
		"program_4391385a-df73-4396-9e33-31e4e4930b27": {
			"attributes": [
				"a_position",
				"a_normal",
				"a_color",
				"a_tangent",
				"a_texcoord0"
			],
			"vertexShader": "vertex_4391385a-df73-4396-9e33-31e4e4930b27",
			"fragmentShader": "fragment_4391385a-df73-4396-9e33-31e4e4930b27"
		},
		"program_79348357-432d-4746-8e29-0e25c112e3aa": {
			"attributes": [
				"a_position",
				"a_normal",
				"a_color",
				"a_texcoord0"
			],
			"vertexShader": "vertex_79348357-432d-4746-8e29-0e25c112e3aa",
			"fragmentShader": "fragment_79348357-432d-4746-8e29-0e25c112e3aa"
		},
		"program_f72ec0e7-a844-4e38-82e3-140c44772699": {
			"attributes": [
				"a_position",
				"a_normal",
				"a_color",
				"a_tangent",
				"a_texcoord0"
			],
			"vertexShader": "vertex_f72ec0e7-a844-4e38-82e3-140c44772699",
			"fragmentShader": "fragment_f72ec0e7-a844-4e38-82e3-140c44772699"
		}
	},
	"techniques": {
		"technique_4391385a-df73-4396-9e33-31e4e4930b27": {
			"program": "program_4391385a-df73-4396-9e33-31e4e4930b27",
			"parameters": {
				"position": {
					"type": 35665,
					"semantic": "POSITION"
				},
				"normal": {
					"type": 35665,
					"semantic": "NORMAL"
				},
				"color": {
					"type": 35666,
					"semantic": "COLOR"
				},
				"tangent": {
					"type": 35666,
					"semantic": "TANGENT"
				},
				"texcoord0": {
					"type": 35665,
					"semantic": "TEXCOORD_0"
				},
				"modelViewMatrix": {
					"type": 35676,
					"semantic": "MODELVIEW"
				},
				"projectionMatrix": {
					"type": 35676,
					"semantic": "PROJECTION"
				},
				"normalMatrix": {
					"type": 35675,
					"semantic": "MODELVIEWINVERSETRANSPOSE"
				},
				"SceneLight_0_matrix": {
					"type": 35676,
					"semantic": "MODELVIEW",
					"node": "node_SceneLight_0_i1"
				},
				"SceneLight_0_color": {
					"type": 35666,
					"node": "node_SceneLight_0_i1"
				},
				"SceneLight_1_matrix": {
					"type": 35676,
					"semantic": "MODELVIEW",
					"node": "node_SceneLight_1_i2"
				},
				"SceneLight_1_color": {
					"type": 35666,
					"node": "node_SceneLight_1_i2"
				},
				"ambient_light_color": {
					"type": 35666
				},
				"OutlineMax": {
					"type": 5126
				}
			},
			"attributes": {
				"a_position": "position",
				"a_normal": "normal",
				"a_color": "color",
				"a_tangent": "tangent",
				"a_texcoord0": "texcoord0"
			},
			"uniforms": {
				"u_modelViewMatrix": "modelViewMatrix",
				"u_projectionMatrix": "projectionMatrix",
				"u_normalMatrix": "normalMatrix",
				"u_SceneLight_0_matrix": "SceneLight_0_matrix",
				"u_SceneLight_0_color": "SceneLight_0_color",
				"u_SceneLight_1_matrix": "SceneLight_1_matrix",
				"u_SceneLight_1_color": "SceneLight_1_color",
				"u_ambient_light_color": "ambient_light_color",
				"u_OutlineMax": "OutlineMax"
			},
			"states": {
				"enable": [
					2929,
					2884
				],
				"functions": {
					"depthMask": [true]
				}
			}
		},
		"technique_79348357-432d-4746-8e29-0e25c112e3aa": {
			"program": "program_79348357-432d-4746-8e29-0e25c112e3aa",
			"parameters": {
				"position": {
					"type": 35665,
					"semantic": "POSITION"
				},
				"normal": {
					"type": 35665,
					"semantic": "NORMAL"
				},
				"color": {
					"type": 35666,
					"semantic": "COLOR"
				},
				"texcoord0": {
					"type": 35665,
					"semantic": "TEXCOORD_0"
				},
				"modelViewMatrix": {
					"type": 35676,
					"semantic": "MODELVIEW"
				},
				"projectionMatrix": {
					"type": 35676,
					"semantic": "PROJECTION"
				},
				"normalMatrix": {
					"type": 35675,
					"semantic": "MODELVIEWINVERSETRANSPOSE"
				},
				"SceneLight_0_matrix": {
					"type": 35676,
					"semantic": "MODELVIEW",
					"node": "node_SceneLight_0_i1"
				},
				"SceneLight_0_color": {
					"type": 35666,
					"node": "node_SceneLight_0_i1"
				},
				"SceneLight_1_matrix": {
					"type": 35676,
					"semantic": "MODELVIEW",
					"node": "node_SceneLight_1_i2"
				},
				"SceneLight_1_color": {
					"type": 35666,
					"node": "node_SceneLight_1_i2"
				},
				"ambient_light_color": {
					"type": 35666
				},
				"Cutoff": {
					"type": 5126
				},
				"Color": {
					"type": 35666
				}
			},
			"attributes": {
				"a_position": "position",
				"a_normal": "normal",
				"a_color": "color",
				"a_texcoord0": "texcoord0"
			},
			"uniforms": {
				"u_modelViewMatrix": "modelViewMatrix",
				"u_projectionMatrix": "projectionMatrix",
				"u_normalMatrix": "normalMatrix",
				"u_SceneLight_0_matrix": "SceneLight_0_matrix",
				"u_SceneLight_0_color": "SceneLight_0_color",
				"u_SceneLight_1_matrix": "SceneLight_1_matrix",
				"u_SceneLight_1_color": "SceneLight_1_color",
				"u_ambient_light_color": "ambient_light_color",
				"u_Cutoff": "Cutoff",
				"u_Color": "Color"
			},
			"states": {
				"enable": [
					2929
				],
				"functions": {
					"depthMask": [true]
				}
			}
		},
		"technique_f72ec0e7-a844-4e38-82e3-140c44772699": {
			"program": "program_f72ec0e7-a844-4e38-82e3-140c44772699",
			"parameters": {
				"position": {
					"type": 35665,
					"semantic": "POSITION"
				},
				"normal": {
					"type": 35665,
					"semantic": "NORMAL"
				},
				"color": {
					"type": 35666,
					"semantic": "COLOR"
				},
				"tangent": {
					"type": 35666,
					"semantic": "TANGENT"
				},
				"texcoord0": {
					"type": 35664,
					"semantic": "TEXCOORD_0"
				},
				"modelViewMatrix": {
					"type": 35676,
					"semantic": "MODELVIEW"
				},
				"projectionMatrix": {
					"type": 35676,
					"semantic": "PROJECTION"
				},
				"normalMatrix": {
					"type": 35675,
					"semantic": "MODELVIEWINVERSETRANSPOSE"
				},
				"SceneLight_0_matrix": {
					"type": 35676,
					"semantic": "MODELVIEW",
					"node": "node_SceneLight_0_i1"
				},
				"SceneLight_0_color": {
					"type": 35666,
					"node": "node_SceneLight_0_i1"
				},
				"SceneLight_1_matrix": {
					"type": 35676,
					"semantic": "MODELVIEW",
					"node": "node_SceneLight_1_i2"
				},
				"SceneLight_1_color": {
					"type": 35666,
					"node": "node_SceneLight_1_i2"
				},
				"ambient_light_color": {
					"type": 35666
				},
				"Shininess": {
					"type": 5126
				},
				"Cutoff": {
					"type": 5126
				},
				"Color": {
					"type": 35666
				},
				"SpecColor": {
					"type": 35666
				},
				"MainTex_TexelSize": {
					"type": 35666
				},
				"BumpMap_TexelSize": {
					"type": 35666
				},
				"MainTex": {
					"type": 35678
				},
				"BumpMap": {
					"type": 35678
				}
			},
			"attributes": {
				"a_position": "position",
				"a_normal": "normal",
				"a_color": "color",
				"a_tangent": "tangent",
				"a_texcoord0": "texcoord0"
			},
			"uniforms": {
				"u_modelViewMatrix": "modelViewMatrix",
				"u_projectionMatrix": "projectionMatrix",
				"u_normalMatrix": "normalMatrix",
				"u_SceneLight_0_matrix": "SceneLight_0_matrix",
				"u_SceneLight_0_color": "SceneLight_0_color",
				"u_SceneLight_1_matrix": "SceneLight_1_matrix",
				"u_SceneLight_1_color": "SceneLight_1_color",
				"u_ambient_light_color": "ambient_light_color",
				"u_Shininess": "Shininess",
				"u_Cutoff": "Cutoff",
				"u_Color": "Color",
				"u_SpecColor": "SpecColor",
				"u_MainTex_TexelSize": "MainTex_TexelSize",
				"u_BumpMap_TexelSize": "BumpMap_TexelSize",
				"u_MainTex": "MainTex",
				"u_BumpMap": "BumpMap"
			},
			"states": {
				"enable": [
					2929
				],
				"functions": {
					"depthMask": [true]
				}
			}
		}
	},
	"samplers": {
		"sampler_LINEAR_LINEAR_MIPMAP_LINEAR_REPEAT": {
			"magFilter": 9729,
			"minFilter": 9987,
			"wrapS": 10497,
			"wrapT": 10497
		}
	},
	"textures": {
		"texture_f72ec0e7-a844-4e38-82e3-140c44772699_MainTex": {
			"format": 6408,
			"internalFormat": 6408,
			"sampler": "sampler_LINEAR_LINEAR_MIPMAP_LINEAR_REPEAT",
			"source": "image_f72ec0e7-a844-4e38-82e3-140c44772699_MainTex",
			"target": 3553,
			"type": 5121
		},
		"texture_f72ec0e7-a844-4e38-82e3-140c44772699_BumpMap": {
			"format": 6408,
			"internalFormat": 6408,
			"sampler": "sampler_LINEAR_LINEAR_MIPMAP_LINEAR_REPEAT",
			"source": "image_f72ec0e7-a844-4e38-82e3-140c44772699_BumpMap",
			"target": 3553,
			"type": 5121
		}
	},
	"images": {
		"image_f72ec0e7-a844-4e38-82e3-140c44772699_MainTex": {
			"uri": "https://www.tiltbrush.com/shaders/brushes/OilPaint-f72ec0e7-a844-4e38-82e3-140c44772699/OilPaint-f72ec0e7-a844-4e38-82e3-140c44772699-v10.0-MainTex.png"
		},
		"image_f72ec0e7-a844-4e38-82e3-140c44772699_BumpMap": {
			"uri": "https://www.tiltbrush.com/shaders/brushes/OilPaint-f72ec0e7-a844-4e38-82e3-140c44772699/OilPaint-f72ec0e7-a844-4e38-82e3-140c44772699-v10.0-BumpMap.png"
		}
	},
	"materials": {
		"material_4391385a-df73-4396-9e33-31e4e4930b27": {
			"technique": "technique_4391385a-df73-4396-9e33-31e4e4930b27",
			"values": {
				"SceneLight_0_color": [0.7780392, 0.8156863, 0.9913726, 1],
				"SceneLight_1_color": [0.4282353, 0.4211765, 0.3458824, 1],
				"ambient_light_color": [0.3921569, 0.3921569, 0.3921569, 1],
				"OutlineMax": 0.005
			},
			"name": "material_4391385a-df73-4396-9e33-31e4e4930b27"
		},
		"material_79348357-432d-4746-8e29-0e25c112e3aa": {
			"technique": "technique_79348357-432d-4746-8e29-0e25c112e3aa",
			"values": {
				"SceneLight_0_color": [0.7780392, 0.8156863, 0.9913726, 1],
				"SceneLight_1_color": [0.4282353, 0.4211765, 0.3458824, 1],
				"ambient_light_color": [0.3921569, 0.3921569, 0.3921569, 1],
				"Cutoff": 0.5,
				"Color": [1, 1, 1, 1]
			},
			"name": "material_79348357-432d-4746-8e29-0e25c112e3aa"
		},
		"material_f72ec0e7-a844-4e38-82e3-140c44772699": {
			"technique": "technique_f72ec0e7-a844-4e38-82e3-140c44772699",
			"values": {
				"SceneLight_0_color": [0.7780392, 0.8156863, 0.9913726, 1],
				"SceneLight_1_color": [0.4282353, 0.4211765, 0.3458824, 1],
				"ambient_light_color": [0.3921569, 0.3921569, 0.3921569, 1],
				"Shininess": 0.4,
				"Cutoff": 0.5,
				"Color": [1, 1, 1, 1],
				"SpecColor": [0.2352941, 0.2352941, 0.2352941, 1],
				"MainTex_TexelSize": [0.001953125, 0.001953125, 512, 512],
				"BumpMap_TexelSize": [0.001953125, 0.001953125, 512, 512],
				"MainTex": "texture_f72ec0e7-a844-4e38-82e3-140c44772699_MainTex",
				"BumpMap": "texture_f72ec0e7-a844-4e38-82e3-140c44772699_BumpMap"
			},
			"name": "material_f72ec0e7-a844-4e38-82e3-140c44772699"
		}
	},
	"nodes": {
		"node_Toon_4391385a-df73-4396-9e33-31e4e4930b27_0_i0": {
			"name": "node_Toon_4391385a-df73-4396-9e33-31e4e4930b27_0_i0",
			"meshes": [
				"mesh_Toon_4391385a-df73-4396-9e33-31e4e4930b27_0_i0"
			],
			"matrix": [1, 0, 0, 0, 0, 1, 0, 0, 0, 0, 1, 0, 0, 0, 0, 1]
		},
		"node_SceneLight_0_i1": {
			"name": "node_SceneLight_0_i1",
			"light": "SceneLight_0",
			"matrix": [0.898794, 0.2191856, -0.3796406, 0, -0.4383712, 0.449397, -0.7783785, 0, -1.490116E-08, 0.8660254, 0.4999999, 0, -2.84207, 0.1822423, -3.234309, 1]
		},
		"node_SceneLight_1_i2": {
			"name": "node_SceneLight_1_i2",
			"light": "SceneLight_1",
			"matrix": [0.7660446, -0.4924039, -0.4131757, 0, -0.6427875, -0.5868244, -0.4924039, 0, 2.980232E-08, 0.6427875, -0.7660447, 0, -2.84207, 0.1600001, -3.36045, 1]
		},
		"node_MatteHull_79348357-432d-4746-8e29-0e25c112e3aa_0_i0": {
			"name": "node_MatteHull_79348357-432d-4746-8e29-0e25c112e3aa_0_i0",
			"meshes": [
				"mesh_MatteHull_79348357-432d-4746-8e29-0e25c112e3aa_0_i0"
			],
			"matrix": [1, 0, 0, 0, 0, 1, 0, 0, 0, 0, 1, 0, 0, 0, 0, 1]
		},
		"node_OilPaint_f72ec0e7-a844-4e38-82e3-140c44772699_0_i0": {
			"name": "node_OilPaint_f72ec0e7-a844-4e38-82e3-140c44772699_0_i0",
			"meshes": [
				"mesh_OilPaint_f72ec0e7-a844-4e38-82e3-140c44772699_0_i0"
			],
			"matrix": [1, 0, 0, 0, 0, 1, 0, 0, 0, 0, 1, 0, 0, 0, 0, 1]
		}
	},
	"scene": "defaultScene",
	"scenes": {
		"defaultScene": {
			"nodes": [
				"node_Toon_4391385a-df73-4396-9e33-31e4e4930b27_0_i0",
				"node_SceneLight_0_i1",
				"node_SceneLight_1_i2",
				"node_MatteHull_79348357-432d-4746-8e29-0e25c112e3aa_0_i0",
				"node_OilPaint_f72ec0e7-a844-4e38-82e3-140c44772699_0_i0"
			],
			"extras": {
				"TB_EnvironmentGuid": "ab080599-e465-4a6d-8587-43bf495af68b",
				"TB_Environment": "Standard",
				"TB_UseGradient": "true",
				"TB_SkyColorA": "0.2745098, 0.2745098, 0.3176471",
				"TB_SkyColorB": "0.03529412, 0.03529412, 0.08627451",
				"TB_SkyGradientDirection": "0, 1, 0",
				"TB_FogColor": "0.1647059, 0.1647059, 0.2078431",
				"TB_FogDensity": "0.0025",
				"TB_SkyColorHorizon": "0.2745098, 0.2745098, 0.3176471",
				"TB_SkyColorZenith": "0.03529412, 0.03529412, 0.08627451"
			}
		}
	}
}